<svg width="18" height="19" viewBox="0 0 18 19" fill="none" xmlns="http://www.w3.org/2000/svg">
<path d="M12.6268 2.35469C13.6109 2.35752 14.5539 2.73524 15.2498 3.40535C15.9456 4.07546 16.3379 4.98351 16.3408 5.93119V13.0834C16.3379 14.0311 15.9456 14.9392 15.2498 15.6093C14.5539 16.2794 13.6109 16.6571 12.6268 16.6599H5.19944C4.21532 16.6571 3.27234 16.2794 2.57645 15.6093C1.88057 14.9392 1.48832 14.0311 1.48539 13.0834V5.93119C1.48832 4.98351 1.88057 4.07546 2.57645 3.40535C3.27234 2.73524 4.21532 2.35752 5.19944 2.35469H12.6268ZM12.6268 0.924316H5.19944C2.33969 0.924316 0 3.17735 0 5.93119V13.0834C0 15.8373 2.33969 18.0903 5.19944 18.0903H12.6268C15.4865 18.0903 17.8262 15.8373 17.8262 13.0834V5.93119C17.8262 3.17735 15.4865 0.924316 12.6268 0.924316Z" fill="#1C2752"/>
<path d="M13.7409 5.93139C13.5205 5.93139 13.3051 5.86847 13.1219 5.75058C12.9387 5.63269 12.7959 5.46513 12.7116 5.26909C12.6272 5.07305 12.6052 4.85733 12.6482 4.64921C12.6912 4.44109 12.7973 4.24993 12.9531 4.09988C13.1089 3.94984 13.3074 3.84766 13.5235 3.80626C13.7397 3.76486 13.9637 3.78611 14.1673 3.86731C14.3708 3.94852 14.5448 4.08603 14.6673 4.26246C14.7897 4.4389 14.855 4.64632 14.855 4.85852C14.8553 4.9995 14.8267 5.13914 14.7709 5.26945C14.715 5.39975 14.6329 5.51815 14.5294 5.61783C14.4259 5.71752 14.3029 5.79653 14.1676 5.85034C14.0323 5.90415 13.8873 5.9317 13.7409 5.93139ZM8.9131 6.64639C9.50074 6.64639 10.0752 6.81419 10.5638 7.12857C11.0524 7.44296 11.4332 7.8898 11.6581 8.41261C11.883 8.93541 11.9418 9.51069 11.8272 10.0657C11.7125 10.6207 11.4296 11.1305 11.014 11.5306C10.5985 11.9308 10.0691 12.2033 9.49274 12.3137C8.91639 12.4241 8.31899 12.3674 7.77608 12.1508C7.23317 11.9343 6.76914 11.5676 6.44266 11.0971C6.11619 10.6266 5.94193 10.0734 5.94193 9.50751C5.94277 8.74894 6.25608 8.02168 6.81309 7.48529C7.37011 6.9489 8.12535 6.6472 8.9131 6.64639ZM8.9131 5.21602C8.03167 5.21602 7.17005 5.46771 6.43717 5.93926C5.70429 6.41082 5.13309 7.08106 4.79578 7.86523C4.45847 8.6494 4.37022 9.51227 4.54218 10.3447C4.71413 11.1772 5.13858 11.9419 5.76184 12.5421C6.3851 13.1422 7.17918 13.551 8.04367 13.7165C8.90815 13.8821 9.80422 13.7972 10.6185 13.4723C11.4329 13.1475 12.1289 12.5975 12.6186 11.8917C13.1083 11.186 13.3696 10.3563 13.3696 9.50751C13.3696 8.36934 12.9001 7.27778 12.0644 6.47297C11.2286 5.66815 10.095 5.21602 8.9131 5.21602Z" fill="#1C2752"/>
</svg>
