<svg width="228" height="46" viewBox="0 0 228 46" fill="none" xmlns="http://www.w3.org/2000/svg">
<g clip-path="url(#clip0_1_329)">
<path d="M57.0073 35V10.325H68.3823C71.089 10.325 73.1773 10.8967 74.6473 12.04C76.1173 13.1833 76.8523 14.7467 76.8523 16.73C76.8523 18.2 76.409 19.4483 75.5223 20.475C74.659 21.5017 73.469 22.19 71.9523 22.54V21.98C73.7256 22.2833 75.0906 22.96 76.0473 24.01C77.0273 25.0367 77.5173 26.3783 77.5173 28.035C77.5173 30.2283 76.7356 31.9433 75.1723 33.18C73.6323 34.3933 71.4973 35 68.7673 35H57.0073ZM62.2223 30.94H68.1023C69.4556 30.94 70.494 30.6833 71.2173 30.17C71.9406 29.6567 72.3023 28.84 72.3023 27.72C72.3023 26.5767 71.9406 25.76 71.2173 25.27C70.494 24.7567 69.4556 24.5 68.1023 24.5H62.2223V30.94ZM62.2223 20.475H67.4023C68.8256 20.475 69.8756 20.2183 70.5523 19.705C71.229 19.1917 71.5673 18.4217 71.5673 17.395C71.5673 16.3917 71.229 15.6333 70.5523 15.12C69.8756 14.6067 68.8256 14.35 67.4023 14.35H62.2223V20.475ZM81.0274 35V9.24H86.3124V35H81.0274ZM97.0719 35.385C94.8552 35.385 93.2102 34.7783 92.1369 33.565C91.0636 32.3283 90.5269 30.4617 90.5269 27.965V17.255H95.8119V27.965C95.8119 29.085 96.0336 29.9133 96.4769 30.45C96.9436 30.9867 97.6552 31.255 98.6119 31.255C99.6619 31.255 100.525 30.8933 101.202 30.17C101.902 29.4233 102.252 28.4317 102.252 27.195V17.255H107.537V35H102.392V31.605H102.882C102.345 32.795 101.575 33.7283 100.572 34.405C99.5919 35.0583 98.4252 35.385 97.0719 35.385ZM120.817 35.385C117.737 35.385 115.333 34.5567 113.607 32.9C111.88 31.2433 111.017 28.9917 111.017 26.145C111.017 24.3017 111.378 22.6917 112.102 21.315C112.848 19.9383 113.875 18.865 115.182 18.095C116.512 17.3017 118.063 16.905 119.837 16.905C121.587 16.905 123.045 17.2783 124.212 18.025C125.402 18.7717 126.288 19.8217 126.872 21.175C127.478 22.505 127.782 24.0567 127.782 25.83V27.055H115.357V24.43H123.932L123.337 24.92C123.337 23.45 123.033 22.3417 122.427 21.595C121.843 20.825 120.992 20.44 119.872 20.44C118.635 20.44 117.678 20.895 117.002 21.805C116.348 22.715 116.022 24.0217 116.022 25.725V26.285C116.022 28.0117 116.442 29.295 117.282 30.135C118.145 30.975 119.382 31.395 120.992 31.395C121.948 31.395 122.847 31.2783 123.687 31.045C124.55 30.7883 125.367 30.3917 126.137 29.855L127.607 33.355C126.72 34.0083 125.693 34.51 124.527 34.86C123.383 35.21 122.147 35.385 120.817 35.385ZM143.42 35.385C140.783 35.385 138.52 34.86 136.63 33.81C134.74 32.76 133.282 31.29 132.255 29.4C131.252 27.4867 130.75 25.235 130.75 22.645C130.75 20.055 131.252 17.815 132.255 15.925C133.282 14.035 134.74 12.565 136.63 11.515C138.52 10.465 140.783 9.94 143.42 9.94C145.123 9.94 146.675 10.185 148.075 10.675C149.475 11.1417 150.665 11.83 151.645 12.74L149.93 17.045C148.857 16.205 147.83 15.61 146.85 15.26C145.893 14.91 144.808 14.735 143.595 14.735C141.285 14.735 139.512 15.4233 138.275 16.8C137.062 18.1533 136.455 20.1017 136.455 22.645C136.455 25.1883 137.062 27.1483 138.275 28.525C139.512 29.9017 141.285 30.59 143.595 30.59C144.808 30.59 145.893 30.415 146.85 30.065C147.83 29.715 148.857 29.12 149.93 28.28L151.645 32.585C150.665 33.4717 149.475 34.16 148.075 34.65C146.675 35.14 145.123 35.385 143.42 35.385ZM162.264 35.385C160.374 35.385 158.729 35.0117 157.329 34.265C155.953 33.495 154.879 32.4217 154.109 31.045C153.363 29.6683 152.989 28.0233 152.989 26.11C152.989 24.22 153.363 22.5867 154.109 21.21C154.879 19.8333 155.953 18.7717 157.329 18.025C158.729 17.2783 160.374 16.905 162.264 16.905C164.154 16.905 165.799 17.2783 167.199 18.025C168.599 18.7717 169.673 19.8333 170.419 21.21C171.189 22.5867 171.574 24.22 171.574 26.11C171.574 28.0233 171.189 29.6683 170.419 31.045C169.673 32.4217 168.599 33.495 167.199 34.265C165.799 35.0117 164.154 35.385 162.264 35.385ZM162.264 31.395C163.478 31.395 164.434 30.9633 165.134 30.1C165.858 29.2367 166.219 27.9067 166.219 26.11C166.219 24.3133 165.858 22.995 165.134 22.155C164.434 21.315 163.478 20.895 162.264 20.895C161.051 20.895 160.083 21.315 159.359 22.155C158.659 22.995 158.309 24.3133 158.309 26.11C158.309 27.9067 158.659 29.2367 159.359 30.1C160.083 30.9633 161.051 31.395 162.264 31.395ZM201.091 35.385C199.551 35.385 198.198 35.0117 197.031 34.265C195.865 33.5183 194.955 32.4567 194.301 31.08C193.648 29.7033 193.321 28.0467 193.321 26.11C193.321 24.1967 193.648 22.5517 194.301 21.175C194.955 19.7983 195.865 18.7483 197.031 18.025C198.198 17.2783 199.551 16.905 201.091 16.905C202.515 16.905 203.786 17.255 204.906 17.955C206.05 18.6317 206.796 19.5533 207.146 20.72H206.761L207.181 17.255H212.256C212.186 18.025 212.116 18.8067 212.046 19.6C212 20.37 211.976 21.1283 211.976 21.875V35H206.726L206.691 31.675H207.111C206.738 32.795 205.991 33.6933 204.871 34.37C203.751 35.0467 202.491 35.385 201.091 35.385ZM202.701 31.395C203.915 31.395 204.895 30.9633 205.641 30.1C206.388 29.2367 206.761 27.9067 206.761 26.11C206.761 24.3133 206.388 22.995 205.641 22.155C204.895 21.315 203.915 20.895 202.701 20.895C201.488 20.895 200.508 21.315 199.761 22.155C199.015 22.995 198.641 24.3133 198.641 26.11C198.641 27.9067 199.003 29.2367 199.726 30.1C200.473 30.9633 201.465 31.395 202.701 31.395ZM216.276 35V21.945C216.276 21.175 216.252 20.3933 216.206 19.6C216.182 18.8067 216.124 18.025 216.031 17.255H221.106L221.701 22.435H220.896C221.129 21.175 221.502 20.1367 222.016 19.32C222.552 18.5033 223.206 17.8967 223.976 17.5C224.769 17.1033 225.667 16.905 226.671 16.905C227.114 16.905 227.464 16.9283 227.721 16.975C227.977 16.9983 228.234 17.0567 228.491 17.15L228.456 21.805C227.966 21.595 227.546 21.4667 227.196 21.42C226.869 21.35 226.449 21.315 225.936 21.315C224.956 21.315 224.139 21.5017 223.486 21.875C222.856 22.2483 222.377 22.7967 222.051 23.52C221.747 24.2433 221.596 25.1183 221.596 26.145V35H216.276Z" fill="#1C2752"/>
<path d="M174.987 35V9.24H180.272V35H174.987ZM184.592 35V9.24H189.877V35H184.592Z" fill="#FFB342"/>
<path d="M39.0644 29.098H44V25H29.733C29.4735 29.2521 25.9028 32.626 21.5381 32.626C17.1734 32.626 13.6027 29.2521 13.3432 25H-1.49006e-05L-1.52588e-05 29.098H4.07406C4.29203 29.9402 4.57747 30.767 4.92001 31.5784C5.30925 32.4925 5.77116 33.3655 6.30572 34.1923L2.74025 37.7203L8.35573 43.2768L11.9264 39.7437C12.7516 40.2624 13.6235 40.7143 14.5317 41.0943C15.5541 41.5205 16.6077 41.8543 17.682 42.0854V47H25.6329V42.0443C26.645 41.8133 27.6362 41.4949 28.6015 41.0943C29.5773 40.6886 30.5062 40.2007 31.3833 39.6359L34.8917 43.1074L40.5124 37.5457L36.9469 34.0177C37.4348 33.2423 37.8552 32.4258 38.2184 31.5784C38.561 30.767 38.8464 29.9402 39.0644 29.098Z" fill="#1C2752"/>
<path d="M36.9436 7.17054V15.4455C36.9436 16.0071 36.4796 16.4627 35.9078 16.4627H35.1741C34.6022 16.4627 34.1383 16.0071 34.1383 15.4455V5.01968C32.0127 3.63169 29.6282 2.59334 27.0711 2V16.3567C27.0711 16.9183 26.6071 17.3739 26.0353 17.3739H17.9431C17.3712 17.3739 16.9073 16.9183 16.9073 16.3567V2C14.3825 2.59334 11.998 3.64228 9.87248 5.01968V15.4455C9.87248 16.0071 9.40853 16.4627 8.83668 16.4627H8.10299C7.53114 16.4627 7.06718 16.0071 7.06718 15.4455V7.17054C2.72977 11.112 0 16.7381 0 23H44C44.0108 16.7381 41.2918 11.112 36.9436 7.17054Z" fill="#FFB342"/>
<path d="M25 14.6436C25 15.1171 24.653 15.5 24.2164 15.5H19.7836C19.3582 15.5 19 15.1171 19 14.6436V0.35642C19 -0.117129 19.347 -0.5 19.7836 -0.5H24.2164C24.6418 -0.5 25 -0.117129 25 0.35642V14.6436Z" fill="#FFB342"/>
</g>
<defs>
<clipPath id="clip0_1_329">
<rect width="228" height="46" fill="white"/>
</clipPath>
</defs>
</svg>
