<svg width="19" height="19" viewBox="0 0 19 19" fill="none" xmlns="http://www.w3.org/2000/svg">
<path d="M9.39535 0C4.394 0 0.338745 4.05345 0.338745 9.05256C0.338745 12.7585 2.57055 15.943 5.76058 17.3454C5.73632 16.7149 5.75654 15.9551 5.91826 15.2681C6.09212 14.5326 7.08268 10.3337 7.08268 10.3337C7.08268 10.3337 6.79158 9.75575 6.79158 8.90304C6.79158 7.56132 7.56786 6.55907 8.53821 6.55907C9.36301 6.55907 9.75923 7.17739 9.75923 7.91695C9.75923 8.74542 9.22958 9.98207 8.95869 11.1298C8.73228 12.0916 9.43983 12.8716 10.39 12.8716C12.1042 12.8716 13.2606 10.6691 13.2606 8.0584C13.2606 6.07411 11.9223 4.59094 9.49239 4.59094C6.7471 4.59094 5.03282 6.63989 5.03282 8.92728C5.03282 9.71534 5.26732 10.273 5.6312 10.7014C5.79697 10.8994 5.82123 10.9803 5.76058 11.2066C5.7161 11.3723 5.61907 11.7724 5.5746 11.934C5.51395 12.1644 5.32796 12.2452 5.12177 12.1603C3.85627 11.6431 3.26597 10.2609 3.26597 8.70097C3.26597 6.13069 5.43713 3.04716 9.73902 3.04716C13.1959 3.04716 15.4722 5.54874 15.4722 8.23217C15.4722 11.7845 13.4951 14.4356 10.584 14.4356C9.60559 14.4356 8.6878 13.9062 8.37244 13.3081C8.37244 13.3081 7.84683 15.3934 7.73363 15.7975C7.5436 16.4967 7.16759 17.1918 6.82392 17.7374C7.65757 17.9832 8.52214 18.1084 9.39131 18.1092C14.3927 18.1092 18.4479 14.0557 18.4479 9.05661C18.4479 4.05749 14.3967 0 9.39535 0Z" fill="#1C2752"/>
</svg>
