<svg width="20" height="17" viewBox="0 0 20 17" fill="none" xmlns="http://www.w3.org/2000/svg">
<path d="M19.4765 2.65911C18.76 2.97042 18.002 3.17551 17.2263 3.26791C18.0415 2.79057 18.6545 2.03224 18.9504 1.13513C18.1797 1.5858 17.3379 1.90201 16.4611 2.07021C16.0919 1.68326 15.6479 1.37543 15.156 1.16543C14.6641 0.955431 14.1346 0.847651 13.5998 0.84864C11.4344 0.84864 9.682 2.57555 9.682 4.70435C9.68046 5.00046 9.71439 5.29569 9.78306 5.58373C8.23031 5.51093 6.70984 5.11483 5.31894 4.42075C3.92805 3.72667 2.69734 2.7499 1.70556 1.55293C1.35762 2.1395 1.17361 2.80874 1.17277 3.49074C1.17277 4.8277 1.8703 6.00949 2.92355 6.70184C2.29953 6.68703 1.68829 6.52187 1.14173 6.22038V6.26813C1.14173 8.13829 2.49461 9.6941 4.28519 10.0482C3.94848 10.138 3.6015 10.1835 3.25302 10.1835C3.00575 10.184 2.75905 10.16 2.5165 10.1119C3.01428 11.6438 4.46306 12.758 6.17923 12.7898C4.78471 13.8645 3.07262 14.4454 1.31203 14.4411C0.999525 14.4407 0.687306 14.4221 0.376953 14.3854C2.168 15.5291 4.24995 16.134 6.375 16.1282C13.5914 16.1282 17.5339 10.2512 17.5339 5.15399C17.5339 4.98687 17.5295 4.81975 17.5215 4.6566C18.2868 4.11229 18.9488 3.43587 19.4765 2.65911Z" fill="#1C2752"/>
</svg>
