<svg width="45" height="46" viewBox="0 0 45 46" fill="none" xmlns="http://www.w3.org/2000/svg">
<path d="M39.8401 27.2843H45V23H30.0845C29.8132 27.4454 26.0802 30.9726 21.5171 30.9726C16.954 30.9726 13.221 27.4454 12.9497 23H-1L-1 27.2843H3.25926C3.48714 28.1648 3.78555 29.0291 4.14366 29.8774C4.5506 30.8331 5.0335 31.7457 5.59236 32.6101L1.86482 36.2985L7.73555 42.1076L11.4685 38.4139C12.3312 38.9561 13.2428 39.4286 14.1922 39.8259C15.2611 40.2714 16.3626 40.6204 17.4857 40.862V46H25.798V40.819C26.8561 40.5775 27.8924 40.2447 28.9016 39.8259C29.9217 39.4017 30.8929 38.8916 31.8098 38.3012L35.4777 41.9305L41.3539 36.116L37.6263 32.4276C38.1364 31.617 38.5759 30.7633 38.9556 29.8774C39.3138 29.0291 39.6121 28.1648 39.8401 27.2843Z" fill="#1C2752"/>
<path d="M37.6228 5.41676V14.0858C37.6228 14.6741 37.1377 15.1514 36.5399 15.1514H35.7729C35.175 15.1514 34.69 14.6741 34.69 14.0858V3.16347C32.4678 1.70939 29.9749 0.621594 27.3016 0V15.0404C27.3016 15.6287 26.8165 16.106 26.2187 16.106H17.7587C17.1608 16.106 16.6758 15.6287 16.6758 15.0404V0C14.0362 0.621594 11.5434 1.72048 9.32122 3.16347V14.0858C9.32122 14.6741 8.83618 15.1514 8.23834 15.1514H7.4713C6.87346 15.1514 6.38841 14.6741 6.38841 14.0858V5.41676C1.85385 9.54591 -1 15.4399 -1 22H45C45.0113 15.4399 42.1687 9.54591 37.6228 5.41676Z" fill="#FFB342"/>
<path d="M25 14.6436C25 15.1171 24.653 15.5 24.2164 15.5H19.7836C19.3582 15.5 19 15.1171 19 14.6436V0.35642C19 -0.117129 19.347 -0.5 19.7836 -0.5H24.2164C24.6418 -0.5 25 -0.117129 25 0.35642V14.6436Z" fill="#FFB342"/>
</svg>
